<svg width="393" height="78" viewBox="0 0 393 78" fill="none" xmlns="http://www.w3.org/2000/svg">
<path d="M2 67.9254L12.8484 74.1147C13.4034 74.4314 14.1089 74.1534 14.2988 73.5432L27.6775 30.5425C27.9566 29.6454 29.2068 29.5935 29.5593 30.4645L47.8339 75.6233C48.1001 76.2811 48.9477 76.4601 49.4571 75.966L67.5417 58.4256C67.9433 58.036 68.5864 58.0518 68.9684 58.4605L83.8819 74.4142C84.071 74.6165 84.3355 74.7314 84.6124 74.7314H97.8191C98.3471 74.7314 98.7841 74.3208 98.8171 73.7939L101.364 33.1274C101.391 32.6972 101.691 32.3326 102.108 32.2229L118.173 27.9924C118.468 27.9147 118.783 27.9761 119.027 28.159L129.244 35.8097L150.276 47.4109C150.392 47.4747 150.494 47.5606 150.576 47.6638L163.929 64.4409C164.367 64.9915 165.222 64.9292 165.576 64.3208L176.96 44.7425L189.274 28.7385C189.716 28.1642 190.603 28.2358 190.947 28.8736L205.343 55.5678C205.698 56.2261 206.624 56.2759 207.048 55.6596L218.576 38.888C218.966 38.3199 219.801 38.3079 220.207 38.8646L225.243 45.7596C225.628 46.2867 226.406 46.3097 226.822 45.8061L241.129 28.4604C241.531 27.9725 242.28 27.9761 242.678 28.4678L253.777 42.188C253.817 42.2374 253.861 42.2829 253.91 42.3239L269.656 55.5864C269.713 55.6349 269.776 55.6767 269.843 55.7111L282.071 61.9899C282.576 62.2493 283.196 62.0364 283.435 61.5212L295.671 35.1474C295.957 34.5302 296.763 34.373 297.26 34.8373L309.671 46.4244C310.209 46.9266 311.087 46.6955 311.308 45.9936L320.019 18.3047C320.078 18.1158 320.192 17.9488 320.347 17.8248L340.455 1.69198C340.916 1.32157 341.597 1.431 341.919 1.92747L347.891 11.126C347.926 11.1812 347.957 11.2397 347.981 11.3009L354.33 27.2614C354.477 27.6307 354.828 27.878 355.226 27.8913L364.538 28.2026C364.927 28.2156 365.273 28.4529 365.425 28.8109L375.371 52.2192C375.594 52.7427 376.207 52.9755 376.721 52.7313L387.312 47.6956C387.565 47.5757 387.755 47.3558 387.838 47.0891L392 33.6893" stroke="url(#paint0_linear_18284_12172)" stroke-width="1.6" stroke-linecap="square"/>
<defs>
<linearGradient id="paint0_linear_18284_12172" x1="2" y1="29.3571" x2="392" y2="29.3571" gradientUnits="userSpaceOnUse">
<stop stop-color="#009099" stop-opacity="0.1"/>
<stop offset="0.45" stop-color="#00F0FF"/>
<stop offset="1" stop-color="#009099" stop-opacity="0.1"/>
</linearGradient>
</defs>
</svg>
