<svg width="26" height="26" viewBox="0 0 26 26" fill="none" xmlns="http://www.w3.org/2000/svg">
<path fill-rule="evenodd" clip-rule="evenodd" d="M4.7602 2.27775L0.0194901 12.2356C0.00145036 12.2727 -0.00426633 12.3145 0.00317607 12.355C0.0106185 12.3955 0.0308295 12.4326 0.0608536 12.4608L12.8644 24.7297C12.9007 24.7646 12.9492 24.784 12.9996 24.784C13.05 24.784 13.0984 24.7646 13.1348 24.7297L25.9383 12.4616C25.9683 12.4334 25.9885 12.3963 25.996 12.3558C26.0034 12.3153 25.9977 12.2734 25.9797 12.2364L21.2389 2.27851C21.2236 2.24507 21.199 2.21674 21.1681 2.19691C21.1371 2.17708 21.1011 2.16658 21.0643 2.16668H4.93638C4.89943 2.16622 4.86313 2.17646 4.83187 2.19617C4.80061 2.21588 4.77572 2.24421 4.7602 2.27775Z" fill="#09A577"/>
<path fill-rule="evenodd" clip-rule="evenodd" d="M14.6444 13.2582C14.5524 13.2651 14.0775 13.2934 13.0182 13.2934C12.1756 13.2934 11.5773 13.2682 11.3675 13.2582C8.11123 13.115 5.68074 12.5481 5.68074 11.8695C5.68074 11.1908 8.11123 10.6247 11.3675 10.4792V12.6937C11.5804 12.709 12.1901 12.745 13.0327 12.745C14.0438 12.745 14.5501 12.7029 14.6413 12.6944V10.4807C17.8906 10.6255 20.3157 11.1923 20.3157 11.8695C20.3157 12.5466 17.8914 13.1134 14.6413 13.2574L14.6444 13.2582ZM14.6444 10.2517V8.27008H19.179V5.24825H6.83279V8.27008H11.3667V10.2509C7.68151 10.4202 4.91016 11.1502 4.91016 12.025C4.91016 12.8997 7.68151 13.629 11.3667 13.799V20.1491H14.6436V13.7967C18.3203 13.6274 21.0871 12.8982 21.0871 12.0242C21.0871 11.1502 18.3226 10.421 14.6436 10.2509L14.6444 10.2517Z" fill="white"/>
</svg>
