<svg width="92" height="28" viewBox="0 0 92 28" fill="none" xmlns="http://www.w3.org/2000/svg">
<g clip-path="url(#clip0_719_10841)">
<path d="M1.13461 0C-9.64075 0 59.2779 0 83.1824 0C87.6007 0 91.1346 3.58172 91.1346 8V28C91.1346 28 43.6344 28 28.1346 28C12.6348 28 14.1348 0 1.13461 0Z" fill="url(#paint0_radial_719_10841)"/>
<path d="M72.2597 34C70.1996 29.4007 71.2839 26.7561 72.9103 24.3415C74.6451 21.5819 75.0788 18.9373 75.0788 18.9373C75.0788 18.9373 76.4883 20.777 75.9462 23.7666C78.3315 20.892 78.7652 16.2927 78.44 14.5679C83.8612 18.5923 86.2466 27.446 83.1023 33.885C99.7998 23.7666 87.2224 8.70383 85.0539 7.09408C85.8129 8.81882 85.9213 11.6934 84.4034 13.0732C81.9096 2.9547 75.7293 1 75.7293 1C76.4883 6.17422 73.1271 11.8084 69.8744 16.0627C69.7659 13.993 69.6575 12.6132 68.5733 10.5436C68.3564 14.338 65.6458 17.3275 64.8868 21.122C63.911 26.2962 65.6458 29.9756 72.2597 34Z" fill="white" fill-opacity="0.3"/>
<path d="M41.6355 20H43.8555V15.2H48.0555V20H50.2605V8.9H48.0555V13.28H43.8555V8.9H41.6355V20ZM57.398 20.21C60.338 20.21 62.348 18.02 62.348 14.405C62.348 10.805 60.338 8.705 57.398 8.705C54.443 8.705 52.433 10.79 52.433 14.405C52.433 18.02 54.443 20.21 57.398 20.21ZM57.398 18.29C55.733 18.29 54.698 16.775 54.698 14.405C54.698 12.035 55.733 10.61 57.398 10.61C59.048 10.61 60.098 12.035 60.098 14.405C60.098 16.775 59.048 18.29 57.398 18.29ZM66.194 20H68.414V10.745H71.549V8.9H63.059V10.745H66.194V20Z" fill="white"/>
</g>
<defs>
<radialGradient id="paint0_radial_719_10841" cx="0" cy="0" r="1" gradientUnits="userSpaceOnUse" gradientTransform="translate(13.1348 15) rotate(-0.734522) scale(78.0064 253.896)">
<stop stop-color="#FF3A01"/>
<stop offset="1" stop-color="#FF7B01"/>
</radialGradient>
<clipPath id="clip0_719_10841">
<rect width="91.1346" height="28" fill="white"/>
</clipPath>
</defs>
</svg>
